<svg width="59" height="56" viewBox="0 0 59 56" fill="none" xmlns="http://www.w3.org/2000/svg">
<path d="M58.6773 0V9.14741C55.8513 9.74237 53.4715 11.1554 51.5379 13.3865C49.753 15.6175 48.4143 18.4436 47.5219 21.8646C46.7782 25.1368 46.4064 28.7809 46.4064 32.7968H56.6693V56H34.8048V35.251C34.8048 26.6242 35.9947 19.9309 38.3745 15.1713C40.9031 10.263 44.0266 6.69323 47.745 4.46216C51.4635 2.08234 55.1076 0.594955 58.6773 0ZM24.0956 0V9.14741C21.2696 9.74237 18.8898 11.1554 16.9562 13.3865C15.1713 15.6175 13.8327 18.4436 12.9402 21.8646C12.1965 25.1368 11.8247 28.7809 11.8247 32.7968H21.8645V56H0V35.251C0 26.6242 1.26428 19.9309 3.79283 15.1713C6.32138 10.263 9.44489 6.69323 13.1633 4.46216C16.8818 2.08234 20.5259 0.594955 24.0956 0Z" fill="#C2C2C2"/>
</svg>
