<svg width="62" height="69" viewBox="0 0 62 69" fill="none" xmlns="http://www.w3.org/2000/svg">
<path d="M1.0267 12.8541C0.133564 10.3055 1.47552 7.51551 4.02405 6.62237L19.991 1.0267C22.5395 0.133564 25.3296 1.47552 26.2227 4.02405L41.1445 46.6026C42.0376 49.1511 40.6956 51.9411 38.1471 52.8343L22.1802 58.4299C19.6316 59.3231 16.8416 57.9811 15.9485 55.4326L1.0267 12.8541Z" stroke="black" stroke-width="1.5"/>
<path d="M20.5267 22.3111C19.6336 19.7626 20.9755 16.9725 23.5241 16.0794L39.491 10.4837C42.0395 9.5906 44.8296 10.9326 45.7227 13.4811L60.6445 56.0596C61.5376 58.6081 60.1956 61.3982 57.6471 62.2913L41.6802 67.887C39.1316 68.7801 36.3416 67.4382 35.4485 64.8896L20.5267 22.3111Z" stroke="black" stroke-width="1.5"/>
</svg>
