<svg width="83" height="60" viewBox="0 0 83 60" fill="none" xmlns="http://www.w3.org/2000/svg">
<path d="M0.75 6.21359C0.75 3.19613 3.19613 0.75 6.21359 0.75H64.466C67.4835 0.75 69.9296 3.19613 69.9296 6.21359V44.0777C69.9296 47.0951 67.4835 49.5413 64.466 49.5413H6.21359C3.19613 49.5413 0.75 47.0951 0.75 44.0777V6.21359Z" stroke="black" stroke-width="1.5"/>
<path d="M59.7793 18.6413C59.7793 15.6239 62.2254 13.1777 65.2429 13.1777H75.9225C78.94 13.1777 81.3861 15.6239 81.3861 18.6413V53.787C81.3861 56.8044 78.94 59.2505 75.9225 59.2505H65.2429C62.2254 59.2505 59.7793 56.8044 59.7793 53.787V18.6413Z" stroke="black" stroke-width="1.5"/>
</svg>
