<svg width="16" height="17" viewBox="0 0 16 17" fill="none" xmlns="http://www.w3.org/2000/svg">
<path d="M3.44393 1.98079V0.99132L3.44578 0L5.37443 0.00739791C6.58863 0.0129463 7.37896 0.0240432 7.50668 0.0369896C7.61773 0.0480864 7.79357 0.0684307 7.89537 0.0832265C7.99717 0.0980223 8.13413 0.120216 8.20077 0.131313C8.2674 0.144259 8.33033 0.160905 8.33958 0.170152C8.34884 0.179399 8.37475 0.186797 8.39511 0.186797C8.41547 0.186797 8.46915 0.197894 8.51542 0.21269C8.56169 0.227486 8.64869 0.253378 8.70977 0.271873C8.77085 0.288518 8.83008 0.310712 8.83933 0.31811C8.84858 0.327358 8.8745 0.334755 8.89486 0.334755C8.91522 0.336605 8.94853 0.347702 8.96889 0.362498C8.98925 0.379143 9.01887 0.39024 9.03368 0.39024C9.04848 0.39024 9.14843 0.434627 9.25578 0.490112C9.36314 0.543746 9.4964 0.612177 9.55193 0.641769C9.60746 0.67136 9.65743 0.699102 9.66298 0.704651C9.66854 0.710199 9.71111 0.741641 9.76108 0.773082C9.80921 0.806372 9.85178 0.834114 9.85733 0.834114C9.86288 0.834114 9.94802 0.898846 10.0461 0.976524C10.1461 1.05605 10.3145 1.20771 10.4219 1.31498C10.5292 1.42225 10.6588 1.56281 10.7087 1.62569L10.7088 1.62571C10.7606 1.69044 10.8198 1.7644 10.8439 1.79214C10.8679 1.81989 10.9272 1.90496 10.9771 1.98079C11.0271 2.05662 11.0771 2.1306 11.0882 2.1417C11.0974 2.15464 11.1067 2.16944 11.1067 2.17499C11.1067 2.18053 11.1382 2.23602 11.177 2.2989C11.2159 2.36363 11.2955 2.51159 11.3529 2.62811C11.4102 2.74462 11.4584 2.84635 11.4584 2.85374C11.4584 2.86299 11.4806 2.91663 11.5065 2.97396C11.5324 3.03314 11.5657 3.10527 11.5787 3.13671C11.5935 3.16816 11.6157 3.22179 11.6305 3.25693C11.6453 3.29207 11.6694 3.35495 11.6823 3.39564C11.6953 3.43633 11.7119 3.47702 11.7193 3.48811C11.7267 3.49921 11.7379 3.5362 11.7453 3.57134C11.7527 3.60648 11.7712 3.67676 11.786 3.72855C11.8008 3.77848 11.8211 3.83582 11.8304 3.85246C11.8397 3.87096 11.8471 3.90795 11.8471 3.93569C11.8471 3.96528 11.8545 3.99487 11.8637 4.00597C11.873 4.01707 11.8915 4.0707 11.9026 4.12618C11.9137 4.18167 11.934 4.27599 11.9452 4.33518C11.9581 4.39251 11.9729 4.4406 11.9822 4.4406C11.9896 4.4406 11.9951 4.46834 11.9951 4.49978C11.9951 4.53307 12.0025 4.5867 12.0136 4.6163C12.0247 4.64589 12.0395 4.72542 12.0507 4.792C12.0599 4.85858 12.0803 4.98804 12.0969 5.07867C12.1136 5.16929 12.1339 5.308 12.1432 5.38383C12.1506 5.45966 12.1636 5.54288 12.171 5.56878C12.1765 5.59467 12.1895 5.70194 12.1987 5.80921C12.208 5.91648 12.2302 6.17356 12.2487 6.38255C12.2765 6.69696 12.282 6.94479 12.282 7.85288C12.282 8.70919 12.2746 9.04764 12.2487 9.42494C12.2302 9.68941 12.2117 9.95204 12.2061 10.0075C12.2024 10.063 12.1858 10.2091 12.171 10.3312C12.1562 10.4532 12.1395 10.5864 12.1358 10.6271C12.1302 10.6678 12.1136 10.7806 12.0969 10.8768C12.0803 10.9729 12.0599 11.1098 12.0507 11.1819C12.0414 11.2541 12.0284 11.3244 12.021 11.3391C12.0155 11.3539 12.0025 11.4076 11.9951 11.4594C11.9859 11.5093 11.9655 11.6092 11.9507 11.6813C11.9359 11.7534 11.91 11.8681 11.8933 11.9402C11.8767 12.0124 11.8563 12.103 11.8471 12.1437C11.8397 12.1844 11.8174 12.2639 11.8008 12.3194C11.7841 12.3749 11.7601 12.4618 11.7453 12.5136C11.7323 12.5635 11.7082 12.6541 11.6916 12.7115C11.6749 12.7706 11.662 12.8224 11.662 12.828C11.662 12.8335 11.6472 12.8428 11.6305 12.8483C11.612 12.8539 11.5399 12.8705 11.4678 12.8871L11.4676 12.8872C11.3954 12.9038 11.2918 12.9241 11.2363 12.9315C11.1807 12.9408 11.0604 12.9556 10.9679 12.9648C10.8753 12.9759 10.718 12.9926 10.6162 13.0037C10.5144 13.0129 10.3589 13.0222 10.2701 13.0222C10.1794 13.0222 10.1072 13.0185 10.1072 13.0129C10.1072 13.0074 10.1331 12.9352 10.1646 12.8502C10.1942 12.7669 10.2275 12.6837 10.2386 12.6652C10.2479 12.6486 10.2553 12.6245 10.2553 12.6153C10.2553 12.606 10.2664 12.569 10.2812 12.5358C10.296 12.5043 10.3219 12.4266 10.3386 12.3656C10.3552 12.3046 10.3774 12.225 10.3885 12.1899C10.3996 12.1548 10.4163 12.0956 10.4256 12.0604C10.4348 12.0253 10.4552 11.9384 10.47 11.8662L10.4739 11.8472C10.4879 11.7788 10.5041 11.7 10.5126 11.6628C10.5218 11.6221 10.5329 11.5759 10.5403 11.5611C10.5459 11.5463 10.5607 11.4797 10.5699 11.4131L10.5699 11.4131C10.581 11.3465 10.6032 11.2134 10.6181 11.1172C10.6347 11.021 10.6532 10.8916 10.6625 10.8305L10.6995 10.5254C10.7106 10.4181 10.7273 10.296 10.7365 10.2517C10.7476 10.2091 10.755 10.1185 10.7569 10.0501C10.7569 9.97978 10.7643 9.85771 10.7735 9.77634C10.7828 9.69496 10.8013 9.40829 10.8124 9.13827C10.8254 8.86825 10.8365 8.3282 10.8365 7.93611C10.8365 7.54402 10.8309 7.065 10.8235 6.87266C10.8161 6.68031 10.8013 6.45838 10.7902 6.38255C10.7809 6.30672 10.7643 6.14766 10.755 6.03115C10.7458 5.91463 10.7236 5.73153 10.7087 5.62426C10.6921 5.51699 10.6717 5.38013 10.6625 5.3191C10.6551 5.25806 10.6347 5.1323 10.6181 5.04168C10.6032 4.95105 10.581 4.82899 10.5699 4.7735C10.5607 4.71802 10.544 4.64589 10.5348 4.6163C10.5237 4.5867 10.5033 4.51458 10.4866 4.45909C10.4718 4.40361 10.4589 4.34442 10.4589 4.32963C10.4589 4.31483 10.4459 4.2649 10.4311 4.21866C10.4145 4.17242 10.3959 4.11879 10.3867 4.09844C10.3774 4.0781 10.3552 4.01152 10.3386 3.95048C10.3201 3.88945 10.2849 3.79513 10.2608 3.74334C10.2386 3.68971 10.2183 3.63792 10.2183 3.62683C10.2183 3.61573 10.2053 3.57689 10.1886 3.5399C10.172 3.50106 10.1109 3.37345 10.0535 3.25693C9.99615 3.14041 9.94617 3.04054 9.94062 3.03499C9.93507 3.02944 9.91471 2.99615 9.8962 2.96101C9.87584 2.92587 9.85548 2.89258 9.84993 2.88703C9.84437 2.88149 9.81106 2.83895 9.77959 2.79086C9.74627 2.74093 9.71851 2.69469 9.71851 2.68359C9.71851 2.6725 9.71296 2.66325 9.7037 2.6614C9.6963 2.6577 9.66113 2.61886 9.62597 2.57262C9.5908 2.52639 9.54453 2.46905 9.52417 2.44501C9.50381 2.41912 9.43717 2.34884 9.37609 2.28595C9.31501 2.22492 9.21506 2.13245 9.15398 2.08251C9.0929 2.03073 9.02997 1.97894 9.01517 1.96415C9.00036 1.94935 8.93002 1.89941 8.85784 1.85133C8.78565 1.80324 8.64128 1.72001 8.53393 1.66638C8.42658 1.61274 8.31737 1.55911 8.28961 1.54431C8.26 1.52952 8.22298 1.51842 8.20632 1.51842C8.18781 1.51842 8.16375 1.51102 8.15449 1.50178C8.14524 1.49438 8.08601 1.47218 8.02493 1.45369C7.96385 1.43704 7.89352 1.41485 7.8676 1.4056C7.84169 1.39636 7.78061 1.37971 7.72879 1.37046C7.67881 1.35937 7.55665 1.33717 7.4604 1.32238C7.36416 1.30758 7.09207 1.28169 6.85886 1.26689C6.57012 1.2484 6.18143 1.24285 4.85988 1.25025L4.85062 1.98079H3.44393Z" fill="#AAAAAA"/>
<path d="M0.454716 8.35409C0.456566 5.06757 0.458417 2.32664 0.460268 2.26376L0.462119 2.14909L9.00406 2.14724L9.08735 2.21752C9.13362 2.25451 9.20211 2.31924 9.23913 2.35993C9.27614 2.40062 9.36314 2.50234 9.42977 2.58372C9.49825 2.6651 9.61486 2.8223 9.69075 2.93512C9.76478 3.04609 9.82771 3.14781 9.82771 3.16076C9.82771 3.1737 9.83512 3.1848 9.84252 3.1848C9.84993 3.1848 9.87029 3.21624 9.88879 3.25323C9.90545 3.29207 9.92211 3.33276 9.92581 3.3457C9.92951 3.3642 9.09476 3.3679 5.92785 3.3679C3.72712 3.36975 1.91323 3.37345 1.89657 3.379C1.87251 3.38639 1.86881 3.94494 1.87066 8.26532C1.87066 10.9489 1.87621 13.1535 1.88362 13.1664C1.89472 13.1831 2.07056 13.1905 3.28475 13.1997L3.29031 13.7638C3.29401 14.0727 3.29216 14.3464 3.2755 14.4111H0.462119L0.456566 14.3686C0.452865 14.3464 0.451014 11.6388 0.454716 8.35409Z" fill="#AAAAAA"/>
<path d="M11.388 2.35069C11.3547 2.2952 11.3288 2.23972 11.3288 2.22677C11.327 2.20828 11.364 2.20643 11.4713 2.21567C11.5509 2.22122 11.6305 2.23417 11.6472 2.24157C11.6657 2.25081 11.7286 2.25821 11.786 2.25821C11.8452 2.25821 11.9211 2.26746 11.9581 2.27671C11.9933 2.2878 12.0673 2.30445 12.1247 2.3137C12.1802 2.32294 12.2802 2.34329 12.3468 2.35808C12.4116 2.37288 12.5115 2.39692 12.5689 2.41357C12.6244 2.43021 12.6911 2.44686 12.717 2.45426C12.741 2.45981 12.7892 2.47645 12.8225 2.49125C12.8558 2.50604 12.891 2.51714 12.9021 2.51714C12.9113 2.51714 12.9354 2.52454 12.952 2.53378C12.9706 2.54303 13.0168 2.56338 13.0538 2.58002C13.0927 2.59667 13.1316 2.60961 13.1427 2.60961C13.1519 2.60961 13.2334 2.64475 13.3222 2.68729C13.4111 2.72983 13.5258 2.79086 13.5777 2.82045C13.6276 2.85189 13.6721 2.88334 13.6739 2.89073C13.6776 2.89998 13.6869 2.90553 13.698 2.90553C13.7072 2.90553 13.7813 2.95362 13.859 3.01465C13.9386 3.07383 14.0644 3.1848 14.1422 3.26063C14.2181 3.33461 14.2977 3.41783 14.318 3.44188L14.3253 3.45118C14.3497 3.48207 14.3986 3.5443 14.4402 3.59908C14.4883 3.66012 14.5679 3.77848 14.6216 3.86356C14.6734 3.94678 14.716 4.01707 14.7141 4.02076C14.7141 4.02261 14.7474 4.08735 14.79 4.16317C14.8307 4.239 14.864 4.31298 14.864 4.32593C14.864 4.33702 14.8714 4.36292 14.8807 4.38141C14.8899 4.39806 14.9122 4.44245 14.927 4.47759C14.9436 4.51273 14.9566 4.54787 14.9566 4.55711C14.9566 4.56451 14.9677 4.5978 14.9825 4.63109C14.9973 4.66253 15.0269 4.74946 15.0491 4.81974C15.0713 4.89187 15.101 4.99174 15.1176 5.04168C15.1324 5.09346 15.1509 5.16744 15.1602 5.20813C15.1694 5.24882 15.1861 5.33204 15.1972 5.39308C15.2083 5.45411 15.225 5.52069 15.2324 5.54103C15.2416 5.56138 15.2583 5.64461 15.2712 5.72598C15.2823 5.80736 15.299 5.92388 15.3083 5.98491C15.3175 6.04594 15.3286 6.11252 15.3342 6.13287C15.3397 6.15321 15.3545 6.24938 15.3638 6.34556C15.3749 6.44173 15.3952 6.65812 15.4119 6.82642C15.4304 7.03171 15.4434 7.45894 15.4489 8.12106C15.4563 8.76467 15.4526 9.1919 15.4397 9.34171C15.4286 9.46933 15.4101 9.67647 15.4008 9.80408L15.3977 9.83933C15.3874 9.95814 15.3762 10.0865 15.3712 10.137C15.3656 10.1925 15.3527 10.2886 15.3416 10.3497C15.3323 10.4107 15.3175 10.5069 15.3083 10.5624C15.3009 10.6179 15.2842 10.7344 15.2712 10.8213C15.2583 10.9082 15.2416 10.9951 15.2324 11.0155C15.225 11.0358 15.2083 11.1024 15.1972 11.1634C15.1861 11.2245 15.1713 11.304 15.1657 11.3391C15.1602 11.3743 15.1491 11.4131 15.1417 11.4224C15.1324 11.4335 15.1213 11.4705 15.1139 11.5056C15.1084 11.5407 15.0954 11.587 15.0861 11.6073C15.0769 11.6277 15.0565 11.6942 15.038 11.7553C15.0214 11.8163 14.9955 11.894 14.9825 11.9273C14.9677 11.9587 14.9566 11.9994 14.9566 12.0142C14.9566 12.029 14.9473 12.0419 14.9381 12.0419C14.927 12.0419 14.9196 12.0549 14.9196 12.0697C14.9196 12.0845 14.9048 12.1289 14.8899 12.1677C14.8733 12.2047 14.8381 12.2787 14.8122 12.3286C14.7863 12.3804 14.7419 12.4673 14.7123 12.5228C14.6826 12.5783 14.6253 12.6782 14.5827 12.7447C14.542 12.8113 14.5013 12.8687 14.4957 12.8742C14.4883 12.8798 14.4679 12.9094 14.4476 12.9389C14.4291 12.9704 14.3754 13.0407 14.3291 13.0962C14.281 13.1516 14.2014 13.2367 14.1514 13.2866C14.0996 13.3366 14.0163 13.4124 13.9663 13.4568C13.9145 13.4993 13.8109 13.577 13.735 13.6288C13.6572 13.6806 13.5851 13.725 13.5721 13.725C13.5591 13.725 13.548 13.7305 13.5443 13.7398C13.5425 13.7472 13.4444 13.8008 13.3278 13.86C13.2093 13.9173 13.1038 13.9654 13.0909 13.9654C13.0779 13.9654 13.0372 13.9784 12.9983 13.995C12.9613 14.0116 12.9132 14.032 12.8928 14.0394C12.8725 14.0468 12.8095 14.0671 12.754 14.0819C12.6966 14.0986 12.6189 14.1226 12.5782 14.1337C12.5374 14.1448 12.4708 14.1614 12.4301 14.1688C12.3894 14.1781 12.2728 14.2021 12.171 14.2225C12.0692 14.2428 11.9007 14.2724 11.7952 14.2872C11.6916 14.3039 11.5713 14.3168 11.5268 14.3168C11.4843 14.3168 11.4195 14.3261 11.3843 14.3353C11.3473 14.3464 11.1271 14.3649 10.8938 14.376C10.6403 14.3871 9.36684 14.3982 5.0172 14.4093V13.1886L7.82503 13.1812C9.7944 13.1775 10.6569 13.1701 10.7087 13.1553C10.7495 13.1442 10.8698 13.1257 10.9771 13.1165C11.0826 13.1054 11.2159 13.0888 11.2733 13.0814C11.3288 13.0721 11.4195 13.0555 11.4769 13.0425C11.5324 13.0314 11.6398 13.0074 11.7175 12.9926C11.7934 12.9759 11.8637 12.9556 11.873 12.9463C11.8822 12.9371 11.9081 12.9297 11.9285 12.9297C11.9489 12.9297 12.0247 12.9094 12.0969 12.8816C12.1673 12.8557 12.2506 12.8243 12.282 12.8113C12.3116 12.7984 12.3912 12.7595 12.4579 12.7263C12.5226 12.6948 12.6485 12.6208 12.7355 12.5654C12.8299 12.5025 12.9613 12.3915 13.065 12.2842C13.1593 12.1862 13.2352 12.0956 13.2352 12.0845C13.2352 12.0715 13.2426 12.0586 13.25 12.0567C13.2593 12.053 13.2871 12.0142 13.3148 11.968C13.3407 11.9217 13.387 11.8348 13.4166 11.7738C13.4462 11.7127 13.4962 11.5981 13.5277 11.5204C13.561 11.4409 13.5869 11.3632 13.5869 11.3484C13.5869 11.3336 13.5943 11.3059 13.6017 11.2892C13.611 11.2707 13.6332 11.206 13.6498 11.145C13.6665 11.0839 13.6887 11.0099 13.6961 10.9785C13.7054 10.9489 13.7183 10.8823 13.7239 10.8305C13.7313 10.7806 13.7442 10.7085 13.7535 10.6733C13.7627 10.6382 13.7813 10.5291 13.7961 10.4329C13.8127 10.3367 13.8331 10.1777 13.8442 10.0815C13.8553 9.98533 13.8738 9.75969 13.8868 9.58214C13.9016 9.3861 13.9108 8.88489 13.9108 8.31525C13.9108 7.76966 13.8997 7.23146 13.8868 7.03911C13.8757 6.85601 13.8553 6.63962 13.846 6.55825C13.8349 6.47687 13.8164 6.35296 13.8053 6.28083C13.7942 6.21055 13.7794 6.09773 13.7702 6.03115C13.7627 5.96457 13.7424 5.84805 13.7257 5.77222C13.7091 5.69639 13.6887 5.59652 13.6813 5.55028C13.6721 5.50405 13.6554 5.44856 13.6443 5.42637C13.6332 5.40232 13.6239 5.36348 13.6239 5.33759C13.6239 5.3117 13.6165 5.28766 13.6091 5.28396C13.6017 5.28026 13.5888 5.23957 13.5814 5.19148C13.574 5.14525 13.5591 5.10271 13.5499 5.09716C13.5388 5.09161 13.5314 5.07312 13.5314 5.05647C13.5314 5.03798 13.511 4.97879 13.4851 4.92701C13.4592 4.87337 13.4388 4.82159 13.4388 4.81049C13.4388 4.80124 13.4185 4.75686 13.3944 4.71432C13.3704 4.66993 13.3259 4.5941 13.2982 4.54232C13.2686 4.49238 13.2204 4.41655 13.189 4.37586C13.1575 4.33518 13.0742 4.24455 13.0039 4.17427C12.9317 4.10399 12.7984 3.99857 12.7077 3.93754C12.6152 3.87835 12.53 3.83027 12.5171 3.83027C12.5041 3.83027 12.4949 3.82287 12.4949 3.81177C12.4949 3.80253 12.4782 3.79328 12.4579 3.79328C12.4375 3.79328 12.419 3.78588 12.4153 3.77848C12.4134 3.77108 12.3394 3.73779 12.2543 3.70635C12.1673 3.67491 12.0525 3.63237 11.997 3.61388C11.9174 3.58614 11.897 3.57134 11.8859 3.52695C11.8804 3.49921 11.8674 3.47147 11.86 3.46777C11.8526 3.46407 11.8471 3.44003 11.8471 3.41414C11.8471 3.38824 11.8397 3.3531 11.8304 3.33646C11.8211 3.31796 11.773 3.1959 11.7249 3.06273C11.6749 2.93142 11.6157 2.78531 11.5935 2.73908C11.5694 2.69284 11.5491 2.64475 11.5491 2.63366C11.5509 2.62071 11.5435 2.60776 11.5361 2.60591C11.5287 2.60221 11.5065 2.56708 11.4861 2.52639C11.4658 2.4857 11.4213 2.40617 11.388 2.35069Z" fill="#AAAAAA"/>
<path d="M3.44393 16.5732V10.0538V3.53435H4.85062V9.41199C4.85062 12.643 4.85618 15.2915 4.86173 15.297C4.86728 15.3026 5.34852 15.3044 5.9297 15.3026C6.51089 15.2989 6.99953 15.2933 7.01619 15.2878C7.03099 15.2822 7.1439 15.2656 7.26606 15.2508C7.38822 15.236 7.52519 15.2157 7.57146 15.2083C7.61588 15.199 7.69547 15.1805 7.74729 15.1676C7.79727 15.1546 7.8565 15.138 7.87686 15.1306C7.89722 15.1213 7.98051 15.0936 8.06195 15.0658C8.14339 15.0381 8.30442 14.9678 8.42288 14.9105C8.53948 14.8532 8.6857 14.7718 8.74678 14.7311C8.80786 14.6904 8.8819 14.6405 8.91337 14.6183C8.96704 14.5813 8.9911 14.5794 9.88879 14.5683C10.4977 14.5609 10.8105 14.5628 10.8105 14.5757C10.8105 14.5868 10.8013 14.6053 10.792 14.6183C10.7809 14.6294 10.7162 14.7163 10.6458 14.8069C10.5755 14.8994 10.4607 15.0326 10.3904 15.1028C10.3201 15.175 10.1997 15.2915 10.1239 15.3618C10.0461 15.4339 9.92396 15.5375 9.84993 15.5929C9.77589 15.6484 9.6889 15.7169 9.65743 15.7446C9.62411 15.7723 9.5908 15.7945 9.5834 15.7964C9.57599 15.7964 9.52417 15.826 9.46864 15.8611C9.41126 15.8963 9.25578 15.9795 9.12067 16.0442C8.98555 16.1089 8.82637 16.1811 8.76529 16.2033C8.70421 16.2255 8.62648 16.2551 8.59316 16.2699C8.55984 16.2847 8.51912 16.2957 8.50061 16.2957C8.4821 16.2957 8.45804 16.3031 8.44879 16.3105C8.43953 16.3198 8.39326 16.3383 8.34884 16.3512C8.30257 16.3642 8.22668 16.3827 8.18226 16.3901C8.13598 16.3993 8.03604 16.4197 7.96015 16.4345C7.88241 16.4511 7.74174 16.477 7.64549 16.4936C7.5474 16.5084 7.37341 16.5288 7.2568 16.5399C7.13835 16.5491 6.23325 16.5602 3.44393 16.5732Z" fill="#AAAAAA"/>
</svg>
