<svg width="147" height="56" viewBox="0 0 147 56" fill="none" xmlns="http://www.w3.org/2000/svg">
<g clip-path="url(#clip0_178_1056)">
<path fill-rule="evenodd" clip-rule="evenodd" d="M35.5916 11.3149C35.6956 11.2513 35.7734 11.1523 35.8107 11.0359C35.848 10.9196 35.8424 10.7937 35.7948 10.6812C34.2804 7.01828 32.2547 3.58953 29.7782 0.497758C29.6051 0.288894 29.3722 0.138424 29.1109 0.0667431C28.8497 -0.00493754 28.5727 0.00563822 28.3177 0.0970369C28.0626 0.188436 27.8418 0.356237 27.685 0.577694C27.5283 0.799152 27.4433 1.06356 27.4416 1.33507C27.4416 14.2115 22.7119 22.6298 14.6748 28.5815C14.6405 28.614 14.6202 28.6587 14.6183 28.706C15.0331 34.246 16.0939 39.7183 17.779 45.0109C17.7865 45.0469 17.8079 45.0784 17.8386 45.0986C17.8693 45.1187 17.9068 45.1259 17.9427 45.1183C17.9786 45.1108 18.0101 45.0893 18.0302 45.0586C18.0503 45.0278 18.0574 44.9903 18.0499 44.9543C17.6355 38.2768 19.0508 31.6128 22.1427 25.6835C25.2346 19.7542 29.8853 14.7854 35.5916 11.3149ZM38.1314 20.3668C33.0476 22.7671 28.6941 26.4826 25.5195 31.1306C22.3449 35.7785 20.464 41.1909 20.0705 46.8099H19.7205C18.9251 40.175 20.0314 33.4503 22.9101 27.4227C25.7888 21.3952 30.3207 16.3142 35.9754 12.7745C36.0413 12.7349 36.1151 12.7104 36.1916 12.7028C36.2681 12.6953 36.3453 12.7048 36.4177 12.7308C36.49 12.7568 36.5557 12.7985 36.61 12.8531C36.6643 12.9076 36.7059 12.9735 36.7317 13.0461C37.4886 15.2572 38.0588 17.5282 38.4362 19.835C38.4515 19.9451 38.4313 20.0572 38.3785 20.155C38.3257 20.2527 38.243 20.3309 38.1427 20.3782L38.1314 20.3668ZM12.9816 29.747C13.003 29.7332 13.0276 29.7252 13.053 29.7238C13.0785 29.7224 13.1038 29.7277 13.1266 29.7391C13.1494 29.7505 13.1688 29.7677 13.1829 29.7889C13.1971 29.8101 13.2055 29.8347 13.2073 29.8601C13.6661 35.0023 14.6689 40.0811 16.1987 45.0109C16.2125 45.0394 16.2159 45.0719 16.2084 45.1027C16.2008 45.1335 16.1827 45.1607 16.1572 45.1795C16.1317 45.1983 16.1004 45.2076 16.0688 45.2057C16.0372 45.2039 16.0073 45.191 15.9842 45.1693C11.5559 42.1677 6.63983 39.9623 1.45646 38.6518C1.0808 38.6519 0.718766 38.5108 0.441827 38.2564C0.164889 38.0019 -0.0068323 37.6527 -0.0394366 37.2776C-0.0720409 36.9024 0.0368406 36.5287 0.265714 36.2301C0.494588 35.9315 0.826822 35.7297 1.19683 35.6647C5.2626 33.9802 9.20117 32.0024 12.9816 29.747ZM38.0072 31.3311C38.089 31.3045 38.1761 31.2986 38.2607 31.3141C38.3453 31.3296 38.4247 31.3659 38.4918 31.4197C38.559 31.4735 38.6117 31.5433 38.6454 31.6226C38.679 31.7019 38.6924 31.7884 38.6845 31.8742C38.472 33.6468 38.1477 35.4041 37.7137 37.1356C37.6875 37.2278 37.637 37.3111 37.5675 37.3768C37.4979 37.4426 37.4119 37.4882 37.3186 37.509C36.4484 37.6988 35.5923 37.9483 34.7563 38.2558C32.1345 39.2355 29.7623 40.7859 27.8103 42.7954C25.8584 44.8048 24.3754 47.2232 23.4682 49.8763L22.9264 49.7858C23.5769 45.6467 25.316 41.7562 27.9647 38.5145C30.6133 35.2729 34.0759 32.7973 37.9959 31.3424L38.0072 31.3311ZM36.3027 39.2515C36.3917 39.2296 36.4849 39.2317 36.5728 39.2576C36.6608 39.2835 36.7403 39.3322 36.8034 39.3989C36.8664 39.4655 36.9108 39.5477 36.9319 39.6371C36.953 39.7265 36.9501 39.8199 36.9236 39.9078C35.0154 45.7642 31.8479 51.1293 27.6448 55.6243C27.5038 55.7774 27.3285 55.8946 27.1334 55.9663C26.9383 56.038 26.729 56.0622 26.5228 56.0367C26.3165 56.0113 26.1193 55.937 25.9473 55.8201C25.7754 55.7031 25.6336 55.5468 25.5339 55.3641C25.0822 54.5616 24.5886 53.7835 24.0552 53.0332C24.5891 50.0109 25.9025 47.1812 27.8649 44.8251C29.8272 42.4691 32.3703 40.6685 35.2416 39.6023C35.5916 39.4778 35.9415 39.3534 36.3027 39.2515ZM38.7635 22.528C38.9125 23.9602 38.9878 25.3991 38.9893 26.839C38.9893 27.6311 38.9893 28.4231 38.9215 29.2038C38.9151 29.3087 38.8771 29.4091 38.8126 29.4919C38.7482 29.5747 38.6602 29.636 38.5603 29.6678C38.2104 29.7809 37.8492 29.8941 37.4993 30.0298C33.5428 31.4883 30.0189 33.9266 27.2556 37.1178C24.4924 40.309 22.5798 44.1492 21.696 48.2809H21.4025C21.5482 42.8163 23.1721 37.494 26.1006 32.8825C29.0291 28.271 33.1523 24.5434 38.0298 22.098C38.1028 22.061 38.1837 22.0423 38.2655 22.0433C38.3473 22.0444 38.4277 22.0653 38.4997 22.1042C38.5718 22.1431 38.6334 22.1988 38.6793 22.2667C38.7252 22.3346 38.7541 22.4126 38.7635 22.4941V22.528Z" fill="#C5C5C5"/>
<path fill-rule="evenodd" clip-rule="evenodd" d="M125.05 31.2519C125.041 30.8094 125.12 30.3695 125.283 29.958C125.445 29.5465 125.688 29.1718 125.997 28.8556C126.307 28.5395 126.675 28.2884 127.083 28.117C127.49 27.9456 127.927 27.8573 128.368 27.8574C129.08 27.8606 129.77 28.0992 130.333 28.5363L125.163 32.225C125.077 31.9234 125.039 31.6104 125.05 31.2972V31.2519ZM96.1071 34.6464C95.197 34.6464 94.3242 34.284 93.6806 33.6389C93.0371 32.9938 92.6755 32.1189 92.6755 31.2066C92.6755 30.2944 93.0371 29.4194 93.6806 28.7744C94.3242 28.1293 95.197 27.7669 96.1071 27.7669C96.5457 27.7648 96.98 27.8523 97.3837 28.0241C97.7874 28.1959 98.1519 28.4483 98.4551 28.7659C98.7582 29.0835 98.9937 29.4598 99.147 29.8716C99.3003 30.2835 99.3683 30.7223 99.3468 31.1614C99.3699 31.6008 99.3031 32.0404 99.1503 32.453C98.9976 32.8655 98.7623 33.2424 98.4588 33.5604C98.1553 33.8784 97.7901 34.1308 97.3857 34.302C96.9812 34.4732 96.5461 34.5596 96.1071 34.5559V34.6464ZM99.629 38.6179H102.722C102.842 38.6179 102.957 38.5703 103.041 38.4854C103.126 38.4005 103.173 38.2854 103.173 38.1653V24.2706C103.173 24.1505 103.126 24.0354 103.041 23.9505C102.957 23.8656 102.842 23.818 102.722 23.818H99.629C99.5092 23.818 99.3944 23.8656 99.3097 23.9505C99.225 24.0354 99.1775 24.1505 99.1775 24.2706V25.1079C98.2124 24.2856 96.9899 23.8291 95.7233 23.818C93.817 23.883 92.0137 24.7011 90.7068 26.0937C89.3999 27.4864 88.6955 29.3406 88.7473 31.2519C88.6926 33.1618 89.3967 35.0153 90.7048 36.405C92.0129 37.7948 93.818 38.607 95.7233 38.6632C96.3582 38.6858 96.9911 38.5802 97.5845 38.3528C98.1778 38.1254 98.7196 37.7807 99.1775 37.3393V38.2106C99.1775 38.3306 99.225 38.4458 99.3097 38.5306C99.3944 38.6155 99.5092 38.6632 99.629 38.6632V38.6179ZM81.681 32.5871C82.584 32.7342 82.9452 33.1302 82.9452 33.7186C82.9497 33.855 82.9245 33.9907 82.8713 34.1164C82.8181 34.2421 82.7382 34.3546 82.6372 34.4461C82.5362 34.5377 82.4165 34.6061 82.2865 34.6465C82.1564 34.687 82.0191 34.6985 81.8842 34.6803C81.4156 34.7003 80.9541 34.5607 80.5747 34.2843C80.4966 34.2255 80.4015 34.1938 80.3038 34.1938C80.2061 34.1938 80.1111 34.2255 80.0329 34.2843L77.3802 36.2079C77.3244 36.2459 77.2781 36.2963 77.2448 36.3552C77.2115 36.414 77.1922 36.4798 77.1883 36.5473C77.1811 36.6124 77.1897 36.6782 77.2132 36.7393C77.2368 36.8004 77.2747 36.8548 77.3238 36.8981C77.9173 37.4835 78.6241 37.9411 79.4006 38.2428C80.1771 38.5444 81.0069 38.6836 81.839 38.6519C84.9094 38.6519 87.2911 36.6831 87.2911 33.7751C87.2911 30.8672 85.2932 29.4981 82.6856 29.1586C81.5004 29.0115 81.1617 28.7287 81.1617 28.2534C81.1641 28.1477 81.1886 28.0436 81.2335 27.9479C81.2784 27.8522 81.3428 27.767 81.4225 27.6977C81.5022 27.6285 81.5956 27.5767 81.6964 27.5457C81.7973 27.5148 81.9036 27.5053 82.0083 27.518C82.3884 27.5223 82.7553 27.6582 83.0468 27.9027C83.1242 27.9632 83.2196 27.9961 83.3177 27.9961C83.4159 27.9961 83.5113 27.9632 83.5887 27.9027L85.8463 26.2959C85.8963 26.2608 85.9384 26.2154 85.9695 26.1627C86.0007 26.1101 86.0202 26.0513 86.0269 25.9904C86.0365 25.9298 86.0324 25.8678 86.0148 25.8091C85.9972 25.7503 85.9666 25.6962 85.9253 25.651C85.4582 25.0534 84.8568 24.5749 84.1703 24.2544C83.4837 23.9339 82.7314 23.7805 81.9745 23.8066C79.8636 23.8066 77.3012 25.6284 77.3012 28.1176C77.3012 30.6069 79.1299 32.2589 81.7148 32.6436L81.681 32.5871ZM75.0549 23.7727H71.962C71.8422 23.7727 71.7274 23.8204 71.6427 23.9053C71.558 23.9901 71.5104 24.1053 71.5104 24.2253V38.2106C71.5104 38.3306 71.558 38.4458 71.6427 38.5306C71.7274 38.6155 71.8422 38.6632 71.962 38.6632H75.0549C75.1746 38.6632 75.2895 38.6155 75.3742 38.5306C75.4588 38.4458 75.5064 38.3306 75.5064 38.2106V24.2706C75.5064 24.1505 75.4588 24.0354 75.3742 23.9505C75.2895 23.8656 75.1746 23.818 75.0549 23.818V23.7727ZM73.5084 17.3005C73.9688 17.3095 74.4164 17.454 74.7956 17.716C75.1747 17.978 75.4686 18.346 75.6406 18.7741C75.8127 19.2023 75.8554 19.6717 75.7634 20.124C75.6713 20.5762 75.4487 20.9914 75.1231 21.3178C74.7974 21.6442 74.3833 21.8674 73.9321 21.9596C73.4808 22.0519 73.0125 22.0091 72.5854 21.8366C72.1583 21.6641 71.7912 21.3695 71.5298 20.9895C71.2684 20.6095 71.1243 20.1608 71.1153 19.6993C71.1153 19.0751 71.3627 18.4765 71.803 18.0351C72.2434 17.5938 72.8406 17.3458 73.4633 17.3458L73.5084 17.3005ZM52.8964 23.7614C51.9178 23.7925 50.9613 24.0604 50.1083 24.5421C50.0402 24.583 49.9624 24.6046 49.883 24.6048C49.8037 24.6049 49.7258 24.5836 49.6576 24.543C49.5893 24.5024 49.5333 24.4441 49.4954 24.3743C49.4575 24.3044 49.4391 24.2256 49.4423 24.1461V17.8097C49.4423 17.7257 49.4189 17.6433 49.3748 17.5718C49.3307 17.5003 49.2677 17.4425 49.1927 17.4049C49.1177 17.3673 49.0337 17.3514 48.9502 17.3589C48.8667 17.3665 48.7869 17.3972 48.7198 17.4476L45.6382 19.7106C45.5819 19.7551 45.5364 19.8118 45.5051 19.8765C45.4738 19.9412 45.4576 20.0121 45.4576 20.084V38.188C45.4576 38.308 45.5052 38.4231 45.5898 38.508C45.6745 38.5929 45.7893 38.6406 45.9091 38.6406H48.9907C49.1105 38.6406 49.2253 38.5929 49.31 38.508C49.3947 38.4231 49.4423 38.308 49.4423 38.188V37.3393C49.9002 37.7807 50.4419 38.1254 51.0353 38.3528C51.6286 38.5802 52.2615 38.6858 52.8964 38.6632C54.7948 38.5924 56.5883 37.7726 57.8865 36.3823C59.1846 34.9921 59.8822 33.144 59.8273 31.2406C59.8884 29.33 59.1946 27.4724 57.8967 26.0718C56.5988 24.6713 54.8018 23.8409 52.8964 23.7614ZM52.5013 34.6464C52.0633 34.6485 51.6294 34.561 51.2263 34.3891C50.8232 34.2172 50.4593 33.9646 50.1571 33.6468C49.8548 33.329 49.6205 32.9526 49.4684 32.5408C49.3164 32.129 49.2499 31.6904 49.2729 31.2519C49.2515 30.8138 49.3192 30.3759 49.4718 29.9648C49.6244 29.5537 49.8588 29.178 50.1608 28.8605C50.4627 28.5431 50.8259 28.2904 51.2283 28.118C51.6306 27.9455 52.0637 27.8569 52.5013 27.8574C53.4114 27.8574 54.2843 28.2198 54.9278 28.8649C55.5714 29.51 55.9329 30.3849 55.9329 31.2972C55.9329 32.2094 55.5714 33.0843 54.9278 33.7294C54.2843 34.3745 53.4114 34.7369 52.5013 34.7369V34.6464ZM119.236 31.2519C119.236 27.1332 116.539 23.818 112.655 23.818C111.291 23.7496 109.952 24.2116 108.919 25.1079V24.2706C108.919 24.1505 108.872 24.0354 108.787 23.9505C108.702 23.8656 108.587 23.818 108.468 23.818H105.375C105.257 23.8209 105.145 23.8699 105.063 23.9545C104.98 24.039 104.934 24.1525 104.934 24.2706V38.2106C104.933 38.2695 104.943 38.3281 104.965 38.3829C104.986 38.4378 105.018 38.4878 105.059 38.53C105.1 38.5722 105.149 38.6057 105.204 38.6286C105.258 38.6514 105.316 38.6632 105.375 38.6632H108.468C108.587 38.6632 108.702 38.6155 108.787 38.5306C108.872 38.4458 108.919 38.3306 108.919 38.2106V31.2519C108.9 30.801 108.974 30.351 109.138 29.9305C109.301 29.51 109.55 29.128 109.868 28.8089C110.187 28.4898 110.568 28.2404 110.987 28.0766C111.407 27.9128 111.856 27.8382 112.305 27.8574C113.931 27.8574 115.252 28.9889 115.252 31.2519V38.2106C115.252 38.3306 115.299 38.4458 115.384 38.5306C115.469 38.6155 115.583 38.6632 115.703 38.6632H118.762C118.882 38.6632 118.997 38.6155 119.082 38.5306C119.166 38.4458 119.214 38.3306 119.214 38.2106V31.2519H119.236ZM146.621 27.054V24.2706C146.623 24.2117 146.612 24.1531 146.591 24.0982C146.57 24.0434 146.537 23.9934 146.496 23.9512C146.455 23.909 146.406 23.8755 146.352 23.8526C146.298 23.8297 146.24 23.8179 146.181 23.818H143.257V20.2537C143.259 20.1707 143.236 20.0892 143.192 20.0189C143.148 19.9486 143.084 19.8927 143.009 19.8577C142.938 19.8137 142.856 19.7903 142.772 19.7903C142.688 19.7903 142.606 19.8137 142.535 19.8577L139.442 22.1207C139.386 22.1652 139.34 22.2219 139.309 22.2866C139.278 22.3513 139.261 22.4222 139.261 22.4941V23.8066H137.579C137.46 23.8066 137.345 23.8543 137.26 23.9392C137.176 24.0241 137.128 24.1392 137.128 24.2592V27.0427C137.128 27.1628 137.176 27.2779 137.26 27.3628C137.345 27.4476 137.46 27.4953 137.579 27.4953H139.261V32.4739C139.261 36.0268 142.072 38.4822 146.034 38.6632C146.096 38.6683 146.159 38.6599 146.217 38.6384C146.276 38.6169 146.329 38.5829 146.373 38.5387C146.417 38.4969 146.453 38.4459 146.476 38.3893C146.499 38.3328 146.51 38.2718 146.508 38.2106V35.1442C146.511 35.0291 146.469 34.9173 146.391 34.8327C146.313 34.7481 146.205 34.6975 146.091 34.6916C144.465 34.5785 143.224 33.843 143.224 32.3608V27.5066H146.147C146.206 27.5067 146.264 27.4949 146.318 27.472C146.372 27.4491 146.421 27.4156 146.462 27.3734C146.504 27.3312 146.536 27.2812 146.557 27.2264C146.579 27.1715 146.589 27.1129 146.587 27.054H146.621ZM69.3318 23.8293H68.7674C68.184 23.8165 67.6042 23.9244 67.0643 24.1464C66.5243 24.3683 66.0358 24.6995 65.6293 25.1192V24.5308C65.6255 24.4484 65.5998 24.3685 65.555 24.2994C65.5101 24.2303 65.4476 24.1744 65.374 24.1375C65.3004 24.1006 65.2183 24.084 65.1362 24.0895C65.0541 24.095 64.975 24.1224 64.9069 24.1687L61.814 26.4317C61.7572 26.4732 61.7112 26.5278 61.6798 26.5908C61.6484 26.6538 61.6325 26.7234 61.6334 26.7938V38.2106C61.6334 38.3306 61.6809 38.4458 61.7656 38.5306C61.8503 38.6155 61.9651 38.6632 62.0849 38.6632H65.1665C65.2268 38.6647 65.2867 38.6541 65.3428 38.6321C65.3989 38.61 65.45 38.5769 65.4931 38.5347C65.5363 38.4925 65.5705 38.4421 65.5939 38.3865C65.6173 38.3308 65.6294 38.271 65.6293 38.2106V31.2519C65.6293 28.9889 66.9501 27.8574 68.4965 27.8574C68.7384 27.8589 68.9798 27.8778 69.219 27.914C69.2846 27.9296 69.353 27.9299 69.4187 27.9149C69.4845 27.8998 69.546 27.8698 69.5983 27.8271C69.6507 27.7845 69.6926 27.7303 69.7207 27.6689C69.7489 27.6074 69.7626 27.5403 69.7608 27.4727V24.2819C69.7609 24.1657 69.7165 24.0538 69.6366 23.9696C69.5568 23.8853 69.4476 23.8351 69.3318 23.8293ZM131.518 33.5941C131.154 33.9695 130.717 34.2642 130.232 34.4591C129.748 34.6541 129.228 34.7448 128.707 34.7256C128.324 34.7392 127.941 34.6816 127.578 34.5559L135.232 29.0681C135.316 29.009 135.377 28.9231 135.406 28.8243C135.434 28.7256 135.429 28.62 135.39 28.525C134.824 27.1401 133.859 25.9558 132.618 25.1234C131.378 24.291 129.918 23.8483 128.425 23.8519C127.453 23.8534 126.492 24.047 125.595 24.4217C124.699 24.7963 123.885 25.3447 123.2 26.0353C122.515 26.7259 121.973 27.5452 121.605 28.4462C121.237 29.3472 121.049 30.3122 121.054 31.2858C121.107 33.2727 121.936 35.1592 123.364 36.5391C124.791 37.9189 126.702 38.6817 128.684 38.6632C129.804 38.6808 130.914 38.4599 131.941 38.0152C132.969 37.5704 133.89 36.912 134.645 36.0834C134.683 36.0369 134.712 35.9832 134.73 35.9253C134.747 35.8675 134.753 35.8067 134.746 35.7466C134.74 35.6865 134.722 35.6282 134.693 35.5753C134.664 35.5224 134.624 35.4758 134.577 35.4384L132.105 33.5375C132.017 33.4725 131.909 33.4423 131.8 33.4527C131.692 33.4632 131.591 33.5136 131.518 33.5941Z" fill="#C5C5C5"/>
</g>
<defs>
<clipPath id="clip0_178_1056">
<rect width="146.621" height="56.0091" fill="white"/>
</clipPath>
</defs>
</svg>
