<svg width="164" height="54" viewBox="0 0 164 54" fill="none" xmlns="http://www.w3.org/2000/svg">
<g clip-path="url(#clip0_109_3260)">
<path d="M114.234 53.014H121.407V51.1888H116.354V41.3297H114.234V53.014ZM109.153 53.014H111.275V41.3297H109.153V53.014ZM99.0243 51.6166C99.0243 51.6166 100.455 53.2116 103.055 53.2116C105.491 53.2116 106.907 51.6497 106.907 49.7897C106.907 46.0518 101.409 46.5637 101.409 44.4884C101.409 43.6653 102.183 43.0891 103.17 43.0891C104.637 43.0891 105.754 44.1097 105.754 44.1097L106.676 42.3816C106.676 42.3816 105.491 41.1323 103.187 41.1323C100.948 41.1323 99.2711 42.5789 99.2711 44.5212C99.2711 48.1108 104.785 47.7487 104.785 49.839C104.785 50.7938 103.979 51.2545 103.088 51.2545C101.442 51.2545 100.175 50.0202 100.175 50.0202L99.0243 51.6166ZM92.923 43.3525C92.923 43.3525 93.1698 44.5047 93.3837 45.163L94.4207 48.2921H91.3593L92.3962 45.163C92.6267 44.5047 92.8901 43.3525 92.8901 43.3525H92.923ZM95.9349 53.014H98.1241L94.0092 41.3297H91.7874L87.6741 53.014H89.8632L90.8507 50.0184H94.9474L95.9349 53.014ZM79.8941 46.8107V43.1551H81.507C83.171 43.1551 83.6483 43.8464 83.6483 44.9673C83.6483 46.1358 82.9405 46.8107 81.8033 46.8107H79.8941ZM77.7723 53.014H79.8941V48.6525H81.9348L84.2572 53.014H86.6257L84.2243 48.6525C83.9938 48.241 83.8293 48.0763 83.8293 48.0763V48.0434C85.062 47.5514 85.8027 46.2511 85.8027 44.852C85.8027 43.3033 85.062 42.1856 83.8951 41.6588C83.3849 41.4286 82.809 41.3297 81.5399 41.3297H77.7723V53.014ZM69.2465 51.1888V47.8129H71.5196C72.5895 47.8129 73.2149 48.5207 73.2149 49.4935C73.2149 50.481 72.6058 51.1888 71.518 51.1888H69.2465ZM69.2465 46.1029V43.1551H71.2712C72.2603 43.1551 72.7539 43.764 72.7539 44.605C72.7539 45.4446 72.2274 46.1029 71.3041 46.1029H69.2465ZM67.125 53.014H71.3533C73.5112 53.014 75.3858 51.9623 75.3858 49.625C75.3858 48.4383 74.7767 47.2532 73.4946 46.8765V46.8436C74.3818 46.3663 74.9085 45.428 74.9085 44.3402C74.9085 42.4161 73.4125 41.3297 71.3041 41.3297H67.125V53.014Z" fill="#C5C5C5"/>
<path d="M157.021 26.6388V22.9833H158.634C160.298 22.9833 160.775 23.6745 160.775 24.7954C160.775 25.9639 160.067 26.6388 158.93 26.6388H157.021ZM154.899 32.8423H157.021V28.4806H159.062L161.384 32.8423H163.752L161.351 28.4806C161.12 28.0691 160.956 27.9046 160.956 27.9046V27.8717C162.189 27.3795 162.929 26.0792 162.929 24.6802C162.929 23.1314 162.189 22.014 161.022 21.4872C160.511 21.2567 159.936 21.158 158.667 21.158H154.899V32.8423ZM142.599 28.6469C142.599 31.2639 144.49 33.0397 147.321 33.0397C150.137 33.0397 152.029 31.2639 152.029 28.6469V21.158H149.907V28.6304C149.907 30.2104 148.87 31.0992 147.305 31.0992C145.741 31.0992 144.721 30.2104 144.721 28.6469V21.158H142.599V28.6469ZM130.638 26.9185C130.638 24.6128 132.35 22.9009 134.49 22.9009C136.631 22.9009 138.343 24.6128 138.343 26.9185C138.343 29.3216 136.631 31.0992 134.49 31.0992C132.35 31.0992 130.638 29.3216 130.638 26.9185ZM128.451 26.9185C128.451 30.3586 131.05 33.0397 134.49 33.0397C137.932 33.0397 140.53 30.3586 140.53 26.9185C140.53 23.5758 137.932 20.9604 134.49 20.9604C131.05 20.9604 128.451 23.5758 128.451 26.9185ZM120.699 32.8423H122.82V28.1186H126.688V26.2931H122.82V22.9833H127.412V21.158H120.699V32.8423ZM111.209 32.8423H118.465V31.0169H113.33V27.8717H117.264V26.0463H113.33V22.9833H118.202V21.158H111.209V32.8423ZM102.541 26.6388V22.9833H104.156C105.818 22.9833 106.295 23.6745 106.295 24.7954C106.295 25.9639 105.588 26.6388 104.452 26.6388H102.541ZM100.42 32.8423H102.541V28.4806H104.584L106.904 32.8423H109.273L106.872 28.4806C106.641 28.0691 106.476 27.9046 106.476 27.9046V27.8717C107.709 27.3795 108.45 26.0792 108.45 24.6802C108.45 23.1314 107.709 22.014 106.542 21.4872C106.032 21.2567 105.456 21.158 104.189 21.158H100.42V32.8423ZM91.7521 26.6388V22.9833H93.3669C95.0291 22.9833 95.5066 23.6745 95.5066 24.7954C95.5066 25.9639 94.7988 26.6388 93.6632 26.6388H91.7521ZM89.6306 32.8423H91.7521V28.4806H93.7948L96.1155 32.8423H98.484L96.0826 28.4806C95.8521 28.0691 95.6876 27.9046 95.6876 27.9046V27.8717C96.922 27.3795 97.661 26.0792 97.661 24.6802C97.661 23.1314 96.922 22.014 95.7534 21.4872C95.2432 21.2567 94.667 21.158 93.3998 21.158H89.6306V32.8423ZM82.8726 23.1809C82.8726 23.1809 83.1194 24.333 83.3334 24.9914L84.3703 28.1202H81.3089L82.3459 24.9914C82.5764 24.333 82.8395 23.1809 82.8395 23.1809H82.8726ZM85.8829 32.8423H88.0718L83.9588 21.158H81.7368L77.6221 32.8423H79.8112L80.7987 29.8467H84.8968L85.8829 32.8423ZM66.2012 26.9517C66.2012 30.3914 68.6668 33.0397 72.2383 33.0397C75.2174 33.0397 76.8303 31.1487 76.8303 31.1487L75.711 29.6179C75.711 29.6179 74.3451 31.0992 72.3207 31.0992C69.8847 31.0992 68.3868 29.1406 68.3868 26.9185C68.3868 24.7443 69.8353 22.9009 72.3041 22.9009C74.1641 22.9009 75.4973 24.1355 75.4973 24.1355L76.5177 22.5554C76.5177 22.5554 75.0529 20.9604 72.2054 20.9604C68.7654 20.9604 66.2012 23.5592 66.2012 26.9517Z" fill="#C5C5C5"/>
<path d="M114.245 6.74666C114.245 4.44064 115.959 2.72904 118.098 2.72904C120.238 2.72904 121.951 4.44064 121.951 6.74666C121.951 9.14973 120.238 10.9274 118.098 10.9274C115.959 10.9274 114.245 9.14973 114.245 6.74666ZM112.059 6.74666C112.059 10.1867 114.658 12.8678 118.098 12.8678C121.54 12.8678 124.137 10.1867 124.137 6.74666C124.137 3.40369 121.54 0.788574 118.098 0.788574C114.658 0.788574 112.059 3.40369 112.059 6.74666ZM104.671 6.79612V2.81115H106.697C107.899 2.81115 108.624 3.58496 108.624 4.78801C108.624 6.00598 107.899 6.79612 106.664 6.79612H104.671ZM102.551 12.6702H104.671V8.63767H107.059C109.248 8.63767 110.777 7.05926 110.777 4.78801C110.777 2.51511 109.248 0.985933 107.059 0.985933H102.551V12.6702ZM90.2512 8.47483C90.2512 11.0918 92.1424 12.8678 94.9733 12.8678C97.7895 12.8678 99.6805 11.0918 99.6805 8.47483V0.985933H97.5591V8.4585C97.5591 10.0385 96.5221 10.9274 94.9568 10.9274C93.3933 10.9274 92.3727 10.0385 92.3727 8.47483V0.985933H90.2512V8.47483ZM81.8473 6.46672V2.81115H83.4603C85.1243 2.81115 85.6016 3.50261 85.6016 4.62354C85.6016 5.79206 84.8938 6.46672 83.7565 6.46672H81.8473ZM79.7256 12.6702H81.8473V8.30874H83.8881L86.2105 12.6702H88.579L86.1776 8.30874C85.9471 7.89722 85.7826 7.73252 85.7826 7.73252V7.69963C87.0153 7.2074 87.756 5.9073 87.756 4.5083C87.756 2.95929 87.0153 1.84185 85.8484 1.3151C85.3382 1.08485 84.7622 0.985933 83.4932 0.985933H79.7256V12.6702ZM66.2012 6.81245C66.2012 10.4829 68.8494 12.8678 71.9274 12.8678C74.1016 12.8678 75.3196 11.6186 75.3196 11.6186H75.3525C75.3525 11.6169 75.3359 11.8638 75.3359 12.1106V12.6702H77.1448V6.51618H73.4433V8.34163H75.2372V9.70938C75.2372 9.70938 74.0687 10.9274 72.306 10.9274C70.1169 10.9274 68.3887 9.27967 68.3887 6.74666C68.3887 4.54119 69.7877 2.72904 72.4047 2.72904C74.2661 2.72904 75.5172 3.8481 75.5172 3.8481L76.5688 2.26807C76.5688 2.26807 75.0891 0.788574 72.2236 0.788574C68.7507 0.788574 66.2012 3.42026 66.2012 6.81245Z" fill="#C5C5C5"/>
<path d="M15.2015 11.3638C15.2915 11.2747 15.3762 11.2388 15.449 11.2388C15.5797 11.2388 15.6716 11.3552 15.6671 11.497C15.6632 11.5815 15.627 11.6738 15.5458 11.755C12.3004 15.7899 9.94 20.5048 9.94 27.0468C9.94 33.5835 12.3004 38.2083 15.5458 42.2411C15.627 42.3225 15.6632 42.4165 15.6671 42.4991C15.6716 42.6393 15.5797 42.7576 15.449 42.7576C15.3762 42.7576 15.2915 42.7217 15.2015 42.6319L1.37636 29.2616C0.686302 28.6705 0.246094 27.9809 0.246094 26.9992C0.246094 26.0136 0.686302 25.3257 1.37636 24.7389L15.2015 11.3638Z" fill="#C5C5C5"/>
<path d="M25.832 10.2319C20.4189 10.2319 18.3027 17.9033 18.3027 27.0468C18.3027 36.193 20.4189 43.7629 25.832 43.7629C29.08 43.7629 31.8486 41.8602 31.8582 40.2967C31.8589 39.955 31.7276 39.627 31.4402 39.3405C29.9014 37.8531 29.2988 36.3659 29.2932 35.0548C29.2846 32.5503 31.4579 30.6838 33.4597 30.6838C36.2141 30.6838 37.8382 32.8491 37.8382 35.6515C37.8382 38.3063 36.7045 40.52 35.4746 42.2899C35.427 42.3638 35.4055 42.4427 35.4055 42.5141C35.4069 42.6536 35.4874 42.7672 35.6101 42.7672C35.685 42.7672 35.7725 42.7278 35.867 42.6319L49.6961 29.2617C50.3864 28.6705 50.8275 27.9809 50.8275 26.9993C50.8275 26.0136 50.3864 25.3257 49.6961 24.739L35.867 11.3638C35.7725 11.2694 35.685 11.2295 35.6101 11.2295C35.4867 11.2295 35.4069 11.3442 35.4055 11.4835C35.4055 11.5551 35.427 11.6347 35.4746 11.7089C36.7045 13.4765 37.8382 15.6931 37.8382 18.3453C37.8382 21.1457 36.2141 23.3131 33.4597 23.3131C31.4579 23.3131 29.2846 21.4483 29.2932 18.9428C29.2988 17.6306 29.9014 16.1436 31.4402 14.658C31.7276 14.3688 31.8589 14.0429 31.8582 13.7013C31.8486 12.1358 29.08 10.2319 25.832 10.2319Z" fill="#C5C5C5"/>
</g>
<defs>
<clipPath id="clip0_109_3260">
<rect width="163.507" height="52.423" fill="white" transform="translate(0.246094 0.788574)"/>
</clipPath>
</defs>
</svg>
