<svg width="177" height="46" viewBox="0 0 177 46" fill="none" xmlns="http://www.w3.org/2000/svg">
<g clip-path="url(#clip0_109_3257)">
<path d="M16.3361 10.1436L1.03516 36.5453H12.5859L26.8367 11.9437H29.2369L43.4879 36.5453H55.0386L39.7377 10.1436H16.3361Z" fill="#C5C5C5"/>
<path fill-rule="evenodd" clip-rule="evenodd" d="M64.5389 1.99881C63.0989 3.43277 62.3809 5.4331 62.3848 8.00015V36.5453H68.813V14.9649H81.6695V10.1437H68.813V8.03987C68.813 5.92613 69.9244 4.8673 72.147 4.8634H82.1287V0.0422189C76.3835 -0.110107 72.406 -0.187361 71.1088 -0.187361C68.1975 -0.19907 65.975 0.52973 64.5389 1.99881ZM135.162 34.2495L126.897 10.1436H120.009L128.963 36.5453H134.473C134.364 36.8398 134.265 37.1145 134.173 37.3704V37.3706C133.739 38.5794 133.454 39.3751 132.907 39.8988C131.856 40.9072 129.837 40.9072 123.931 40.9072H123.912V46.1876C136.191 46.1876 137.917 46.0728 141.249 36.503L150.084 10.1436H143.197L135.162 34.2495ZM84.4245 0.0423328H90.8527V36.5454L84.4245 36.5365V0.0423328ZM162.855 32.116C161.103 32.2004 159.389 31.594 158.081 30.4275C156.906 29.2548 156.204 27.5448 155.973 25.2972H175.797V23.7611C175.797 19.4888 174.623 16.0353 172.273 13.4008C169.925 10.7664 166.731 9.45098 162.711 9.45489C158.796 9.45489 155.638 10.7194 153.219 13.2484C150.8 15.7774 149.602 19.1272 149.625 23.2979C149.625 27.4646 150.841 30.8144 153.272 33.3473C155.703 35.8802 158.923 37.2341 162.826 37.2341C165.696 37.2341 168.484 36.411 170.835 34.7955C172.999 33.2292 174.53 30.9414 175.151 28.346H168.933C167.829 30.8632 165.803 32.1199 162.855 32.116ZM169.326 20.7043H156.026C156.645 16.5024 158.849 14.4797 162.638 14.4797C166.214 14.4797 168.973 17.173 169.326 20.7043ZM102.753 30.4275C104.06 31.594 105.775 32.2004 107.527 32.116C110.474 32.1199 112.5 30.8632 113.604 28.346H119.822C119.201 30.9414 117.67 33.2292 115.506 34.7955C113.156 36.411 110.367 37.2341 107.497 37.2341C103.594 37.2341 100.375 35.8802 97.9433 33.3473C95.5121 30.8144 94.2964 27.4646 94.2964 23.2979C94.2735 19.1272 95.4707 15.7774 97.8905 13.2484C100.309 10.7194 103.468 9.45489 107.382 9.45489C111.402 9.45098 114.596 10.7664 116.946 13.4008C119.294 16.0353 120.469 19.4888 120.469 23.7611V25.2972H100.644C100.875 27.5448 101.578 29.2548 102.753 30.4275ZM100.697 20.7043H113.998C113.645 17.173 110.885 14.4797 107.309 14.4797C103.52 14.4797 101.316 16.5024 100.697 20.7043Z" fill="#C5C5C5"/>
</g>
<defs>
<clipPath id="clip0_109_3257">
<rect width="175.835" height="45.8701" fill="white" transform="translate(0.398438 0.0649414)"/>
</clipPath>
</defs>
</svg>
