<svg width="173" height="46" viewBox="0 0 173 46" fill="none" xmlns="http://www.w3.org/2000/svg">
<path d="M0.86499 29.0679C0.86499 27.8145 1.10929 26.6355 1.5979 25.5308C2.10774 24.4262 2.78754 23.4596 3.63729 22.6311C4.48704 21.8026 5.48549 21.1546 6.63265 20.6873C7.80105 20.1987 9.03318 19.9544 10.329 19.9544C11.6462 19.9544 12.8783 20.1987 14.0254 20.6873C15.1726 21.1546 16.1711 21.8026 17.0208 22.6311C17.8705 23.4596 18.5397 24.4262 19.0283 25.5308C19.5382 26.6355 19.7931 27.8145 19.7931 29.0679V43.4074H15.0133V36.2695C14.3972 36.8643 13.6855 37.3317 12.8783 37.6716C12.0923 38.0115 11.2425 38.1814 10.329 38.1814C9.03318 38.1814 7.80105 37.9477 6.63265 37.4804C5.48549 36.9918 4.48704 36.3332 3.63729 35.5047C2.78754 34.6762 2.10774 33.7096 1.5979 32.605C1.10929 31.5003 0.86499 30.3213 0.86499 29.0679ZM5.64481 29.0679C5.64481 29.7264 5.77228 30.3531 6.0272 30.948C6.28212 31.5215 6.62202 32.0208 7.0469 32.4456C7.47177 32.8705 7.971 33.2104 8.54458 33.4653C9.1394 33.7203 9.76609 33.8477 10.4246 33.8477C11.0832 33.8477 11.6993 33.7203 12.2728 33.4653C12.8677 33.2104 13.3775 32.8705 13.8024 32.4456C14.2273 32.0208 14.5672 31.5215 14.8221 30.948C15.077 30.3531 15.2045 29.7264 15.2045 29.0679C15.2045 28.4093 15.077 27.7933 14.8221 27.2197C14.5672 26.6249 14.2273 26.115 13.8024 25.6901C13.3775 25.2653 12.8677 24.9254 12.2728 24.6705C11.6993 24.4155 11.0832 24.2881 10.4246 24.2881C9.76609 24.2881 9.1394 24.4155 8.54458 24.6705C7.971 24.9254 7.47177 25.2653 7.0469 25.6901C6.62202 26.115 6.28212 26.6249 6.0272 27.2197C5.77228 27.7933 5.64481 28.4093 5.64481 29.0679Z" fill="#C5C5C5"/>
<path d="M27.1354 20.4642V29.0679C27.1354 29.7264 27.2097 30.3531 27.3584 30.948C27.5284 31.5215 27.7727 32.0208 28.0913 32.4456C28.4312 32.8705 28.8455 33.2104 29.3341 33.4653C29.8439 33.7203 30.4281 33.8477 31.0867 33.8477C31.7452 33.8477 32.3188 33.7203 32.8074 33.4653C33.3173 33.2104 33.7315 32.8705 34.0502 32.4456C34.3901 32.0208 34.6344 31.5215 34.7831 30.948C34.953 30.3531 35.038 29.7264 35.038 29.0679V20.4642H39.8178V29.0679C39.8178 30.3213 39.6054 31.5003 39.1805 32.605C38.7769 33.7096 38.1927 34.6762 37.4279 35.5047C36.6631 36.3332 35.739 36.9918 34.6556 37.4804C33.5934 37.9477 32.4038 38.1814 31.0867 38.1814C29.7696 38.1814 28.5693 37.9477 27.4859 37.4804C26.4237 36.9918 25.5102 36.3332 24.7454 35.5047C23.9807 34.6762 23.3858 33.7096 22.961 32.605C22.5573 31.5003 22.3555 30.3213 22.3555 29.0679V20.4642H27.1354Z" fill="#C5C5C5"/>
<path d="M51.3434 19.9544C52.6605 19.9544 53.8927 20.1987 55.0398 20.6873C56.187 21.1546 57.1854 21.8026 58.0352 22.6311C58.8849 23.4596 59.5541 24.4262 60.0427 25.5308C60.5526 26.6355 60.8075 27.8145 60.8075 29.0679V37.6716H56.3463V35.5366C55.794 36.3438 55.0823 36.9918 54.2113 37.4804C53.3403 37.9477 52.3844 38.1814 51.3434 38.1814C50.0476 38.1814 48.8154 37.9477 47.647 37.4804C46.4999 36.9918 45.5014 36.3332 44.6517 35.5047C43.8019 34.6762 43.1221 33.7096 42.6123 32.605C42.1237 31.5003 41.8794 30.3213 41.8794 29.0679C41.8794 27.8145 42.1237 26.6355 42.6123 25.5308C43.1221 24.4262 43.8019 23.4596 44.6517 22.6311C45.5014 21.8026 46.4999 21.1546 47.647 20.6873C48.8154 20.1987 50.0476 19.9544 51.3434 19.9544ZM51.439 33.8477C52.0976 33.8477 52.7136 33.7203 53.2872 33.4653C53.882 33.2104 54.3919 32.8705 54.8168 32.4456C55.2416 32.0208 55.5815 31.5215 55.8365 30.948C56.0914 30.3531 56.2188 29.7264 56.2188 29.0679C56.2188 28.4093 56.0914 27.7933 55.8365 27.2197C55.5815 26.6249 55.2416 26.115 54.8168 25.6901C54.3919 25.2653 53.882 24.9254 53.2872 24.6705C52.7136 24.4155 52.0976 24.2881 51.439 24.2881C50.7805 24.2881 50.1538 24.4155 49.559 24.6705C48.9854 24.9254 48.4862 25.2653 48.0613 25.6901C47.6364 26.115 47.2965 26.6249 47.0416 27.2197C46.7867 27.7933 46.6592 28.4093 46.6592 29.0679C46.6592 29.7264 46.7867 30.3531 47.0416 30.948C47.2965 31.5215 47.6364 32.0208 48.0613 32.4456C48.4862 32.8705 48.9854 33.2104 49.559 33.4653C50.1538 33.7203 50.7805 33.8477 51.439 33.8477Z" fill="#C5C5C5"/>
<path d="M81.8126 14.7284V37.6716H77.3514V35.6322C76.7778 36.4182 76.0555 37.0449 75.1845 37.5123C74.3136 37.9584 73.3682 38.1814 72.3485 38.1814C71.0527 38.1814 69.8205 37.9477 68.6521 37.4804C67.505 36.9918 66.5065 36.3332 65.6568 35.5047C64.807 34.6762 64.1272 33.7096 63.6174 32.605C63.1288 31.5003 62.8845 30.3213 62.8845 29.0679C62.8845 27.8145 63.1288 26.6355 63.6174 25.5308C64.1272 24.4262 64.807 23.4596 65.6568 22.6311C66.5065 21.8026 67.505 21.1546 68.6521 20.6873C69.7993 20.1987 71.0208 19.9544 72.3167 19.9544C73.2301 19.9544 74.0799 20.1137 74.8659 20.4323C75.6731 20.7298 76.3954 21.1546 77.0327 21.707V14.7284H81.8126ZM67.6643 29.0679C67.6643 29.7264 67.7917 30.3531 68.0467 30.948C68.3016 31.5215 68.6415 32.0208 69.0664 32.4456C69.4912 32.8705 69.9905 33.2104 70.564 33.4653C71.1589 33.7203 71.7856 33.8477 72.4441 33.8477C73.1027 33.8477 73.7187 33.7203 74.2923 33.4653C74.8871 33.2104 75.397 32.8705 75.8219 32.4456C76.2467 32.0208 76.5866 31.5215 76.8416 30.948C77.0965 30.3531 77.2239 29.7264 77.2239 29.0679C77.2239 28.4093 77.0965 27.7933 76.8416 27.2197C76.5866 26.6249 76.2467 26.115 75.8219 25.6901C75.397 25.2653 74.8871 24.9254 74.2923 24.6705C73.7187 24.4155 73.1027 24.2881 72.4441 24.2881C71.7856 24.2881 71.1589 24.4155 70.564 24.6705C69.9905 24.9254 69.4912 25.2653 69.0664 25.6901C68.6415 26.115 68.3016 26.6249 68.0467 27.2197C67.7917 27.7933 67.6643 28.4093 67.6643 29.0679Z" fill="#C5C5C5"/>
<path d="M84.8418 29.0679C84.8418 27.8145 85.0542 26.6355 85.4791 25.5308C85.9252 24.4262 86.5413 23.4596 87.3273 22.6311C88.1133 21.8026 89.048 21.1546 90.1315 20.6873C91.2361 20.1987 92.447 19.9544 93.7641 19.9544H94.4014V24.2881C93.7429 24.2881 93.1162 24.4155 92.5214 24.6705C91.9478 24.9254 91.4486 25.2653 91.0237 25.6901C90.5988 26.115 90.2589 26.6249 90.004 27.2197C89.7491 27.7933 89.6216 28.4093 89.6216 29.0679V37.6716H84.8418V29.0679Z" fill="#C5C5C5"/>
<path d="M104.992 19.9544C106.309 19.9544 107.541 20.1987 108.688 20.6873C109.836 21.1546 110.834 21.8026 111.684 22.6311C112.533 23.4596 113.203 24.4262 113.691 25.5308C114.201 26.6355 114.456 27.8145 114.456 29.0679V37.6716H109.995V35.5366C109.443 36.3438 108.731 36.9918 107.86 37.4804C106.989 37.9477 106.033 38.1814 104.992 38.1814C103.696 38.1814 102.464 37.9477 101.296 37.4804C100.148 36.9918 99.15 36.3332 98.3002 35.5047C97.4505 34.6762 96.7707 33.7096 96.2608 32.605C95.7722 31.5003 95.5279 30.3213 95.5279 29.0679C95.5279 27.8145 95.7722 26.6355 96.2608 25.5308C96.7707 24.4262 97.4505 23.4596 98.3002 22.6311C99.15 21.8026 100.148 21.1546 101.296 20.6873C102.464 20.1987 103.696 19.9544 104.992 19.9544ZM105.088 33.8477C105.746 33.8477 106.362 33.7203 106.936 33.4653C107.531 33.2104 108.04 32.8705 108.465 32.4456C108.89 32.0208 109.23 31.5215 109.485 30.948C109.74 30.3531 109.867 29.7264 109.867 29.0679C109.867 28.4093 109.74 27.7933 109.485 27.2197C109.23 26.6249 108.89 26.115 108.465 25.6901C108.04 25.2653 107.531 24.9254 106.936 24.6705C106.362 24.4155 105.746 24.2881 105.088 24.2881C104.429 24.2881 103.802 24.4155 103.208 24.6705C102.634 24.9254 102.135 25.2653 101.71 25.6901C101.285 26.115 100.945 26.6249 100.69 27.2197C100.435 27.7933 100.308 28.4093 100.308 29.0679C100.308 29.7264 100.435 30.3531 100.69 30.948C100.945 31.5215 101.285 32.0208 101.71 32.4456C102.135 32.8705 102.634 33.2104 103.208 33.4653C103.802 33.7203 104.429 33.8477 105.088 33.8477Z" fill="#C5C5C5"/>
<path d="M156.855 0.211914H161.67L173 25.7043H166.627L164.715 21.0307H153.81L151.898 25.7043H145.525L156.855 0.211914ZM155.616 16.6403H162.909L159.262 7.71801L155.616 16.6403Z" fill="#C5C5C5"/>
<path fill-rule="evenodd" clip-rule="evenodd" d="M122.953 7.02759H149.265L147.175 11.8074H127.733V41.0175H156.943V26.0584H161.723V45.7973H122.953V7.02759Z" fill="#C5C5C5"/>
</svg>
