<svg width="69" height="60" viewBox="0 0 69 60" fill="none" xmlns="http://www.w3.org/2000/svg">
<path d="M58.8629 34.6187L58.8757 53.5285C58.8757 56.5587 60.9495 59.2932 63.4923 59.4752C66.3509 59.68 68.7214 56.9873 68.7214 53.6347V20.5711C68.7214 17.446 66.6955 14.795 64.073 14.6281C62.4362 14.5219 61.1441 15.3639 59.9987 16.7406L42.7575 37.2356C41.7206 38.4834 41.0762 40.19 41.0762 42.0825L41.0889 55.7509L58.8629 34.6187Z" fill="#C5C5C5"/>
<path d="M29.4648 20.4725C29.4648 17.2413 31.6694 14.6206 34.3877 14.6206C37.106 14.6206 39.3106 17.2413 39.3106 20.4725V53.6347C39.3106 56.866 37.106 59.4866 34.3877 59.4866C31.6694 59.4866 29.4648 56.866 29.4648 53.6347V20.4725Z" fill="#C5C5C5"/>
<path d="M34.3877 12.2161C37.1065 12.2161 39.3106 9.59606 39.3106 6.36413C39.3106 3.1322 37.1065 0.512207 34.3877 0.512207C31.6689 0.512207 29.4648 3.1322 29.4648 6.36413C29.4648 9.59606 31.6689 12.2161 34.3877 12.2161Z" fill="#C5C5C5"/>
<path d="M10.0343 39.4884L10.0215 20.5787C10.0215 17.5484 7.94772 14.814 5.40493 14.6319C2.54629 14.4234 0.175781 17.1199 0.175781 20.4725V53.536C0.175781 56.6611 2.20172 59.3121 4.82427 59.479C6.46097 59.5852 7.75311 58.7432 8.89848 57.3665L26.1397 36.8715C27.1766 35.6238 27.8211 33.9171 27.8211 32.0246L27.8083 18.3562L10.0343 39.4884Z" fill="#C5C5C5"/>
</svg>
